Coordinates
version=1
nRows=7
nColumns=63
inDegrees=yes

Units are S.I. units (second, meters, Newtons, ...)
If the header above contains a line with 'inDegrees', this indicates whether rotational values are in degrees (yes) or radians (no).

endheader
time	pelvis_tilt	pelvis_list	pelvis_rotation	pelvis_tx	pelvis_ty	pelvis_tz	hip_flexion_r	hip_adduction_r	hip_rotation_r	knee_angle_r	knee_angle_r_beta	ankle_angle_r	subtalar_angle_r	mtp_angle_r	hip_flexion_l	hip_adduction_l	hip_rotation_l	knee_angle_l	knee_angle_l_beta	ankle_angle_l	subtalar_angle_l	mtp_angle_l	L5_S1_Flex_Ext	L5_S1_Lat_Bending	L5_S1_axial_rotation	L4_L5_Flex_Ext	L4_L5_Lat_Bending	L4_L5_axial_rotation	L3_L4_Flex_Ext	L3_L4_Lat_Bending	L3_L4_axial_rotation	L2_L3_Flex_Ext	L2_L3_Lat_Bending	L2_L3_axial_rotation	L1_L2_Flex_Ext	L1_L2_Lat_Bending	L1_L2_axial_rotation	L1_T12_Flex_Ext	L1_T12_Lat_Bending	L1_T12_axial_rotation	Abs_r3	Abs_r2	Abs_r1	Abs_t1	Abs_t2	neck_flexion	neck_bending	neck_rotation	arm_flex_r	arm_add_r	arm_rot_r	elbow_flex_r	pro_sup_r	wrist_flex_r	wrist_dev_r	arm_flex_l	arm_add_l	arm_rot_l	elbow_flex_l	pro_sup_l	wrist_flex_l	wrist_dev_l
      4.15254237	      1.96080423	     -8.40357325	     95.89422129	      0.17428040	      0.42340374	      1.02142008	     33.06055179	      3.23616797	      2.80209972	     48.77500434	      0.85128442	     56.28320563	     -3.49874007	      0.00000000	     37.37116961	      1.01726638	      6.41637737	     54.44693773	      0.95027833	     57.30583639	     -6.60198779	      0.00000000	      0.30870508	      0.29311041	     -0.24980270	      0.57329621	      0.38983685	     -0.26541537	      0.50717158	      0.71266866	     -0.26541537	      0.35281904	      0.71266866	     -0.21857737	      0.28666354	      0.59771075	     -0.20296470	      0.17639408	      0.45402803	     -0.18735203	      2.20504952	      3.31572360	     -1.38932769	      0.00000000	      0.00000000	     27.64864701	      6.77508607	      8.21172309	     28.39605432	    -16.83327550	     63.77829218	     58.66065908	     89.15086979	      4.00212104	     21.17915813	     24.17735491	    -25.71193887	     59.76372140	     66.02033519	     89.36084816	    -19.31242614	     14.60476009
      4.16949153	      1.23322451	     -8.47559916	     95.50212891	      0.17617416	      0.42607651	      1.02038363	     32.73818522	      2.85119366	      3.45959504	     48.27460912	      0.84255087	     56.12422899	     -3.56290024	      0.00000000	     36.60252159	      1.37033482	      5.79704326	     53.23566613	      0.92913765	     56.93135176	     -6.74305583	      0.00000000	      0.31825740	      0.16138148	     -0.16818469	      0.59103582	      0.21463736	     -0.17869623	      0.52286509	      0.39238292	     -0.17869623	      0.36373639	      0.39238292	     -0.14716160	      0.29553382	      0.32908911	     -0.13665006	      0.18185228	      0.24997991	     -0.12613851	      2.27328080	      1.82557954	     -0.93539277	      0.00000000	      0.00000000	     27.61106864	      7.31756030	      6.52180943	     26.56564021	    -17.93461564	     62.50034921	     61.45565188	     88.78190170	      7.94351765	     24.06348480	     22.74940342	    -27.05705279	     57.39857080	     68.21046656	     89.23110157	    -12.91139587	     18.57805429
      4.18644068	      0.37459779	     -8.30509600	     94.97468924	      0.17877153	      0.43036782	      1.01915704	     31.97217896	      2.46494601	      4.30094319	     47.43033997	      0.82781560	     55.80296570	     -3.71455013	      0.00000000	     35.34255788	      1.74738372	      5.06909569	     51.62908985	      0.90109761	     56.39025185	     -7.07720289	      0.00000000	      0.30162191	      0.00573394	     -0.05343588	      0.56014205	      0.00762614	     -0.05677563	      0.49553463	      0.01394151	     -0.05677563	      0.34472368	      0.01394151	     -0.04675640	      0.28008610	      0.01169265	     -0.04341666	      0.17234676	      0.00888188	     -0.04007691	      2.15445513	      0.06486350	     -0.29719435	      0.00000000	      0.00000000	     27.36236911	      7.99780222	      4.31510534	     25.51261199	    -19.84320635	     61.82318420	     65.80710563	     87.90161213	      9.75998796	     25.77831812	     21.58190879	    -29.06902981	     54.13647555	     71.59959146	     89.11097817	     -5.98999380	     21.14574843
      4.20338983	     -0.45075040	     -7.95669477	     94.44989674	      0.18138232	      0.43570657	      1.01784798	     30.86483243	      2.09529427	      5.12682486	     46.29052512	      0.80792208	     55.31663192	     -3.86546688	      0.00000000	     33.78158294	      2.14302038	      4.43870334	     49.80733022	      0.86930190	     55.73146694	     -7.58958945	      0.00000000	      0.27354122	     -0.13672581	      0.03977406	      0.50799341	     -0.18184533	      0.04225994	      0.44940088	     -0.33243514	      0.04225994	      0.31263026	     -0.33243514	      0.03480230	      0.25401038	     -0.27881128	      0.03231642	      0.15630146	     -0.21178828	      0.02983054	      1.95387760	     -1.54666974	      0.22121138	      0.00000000	      0.00000000	     26.84912895	      8.72704684	      2.59693359	     25.52911467	    -22.56553774	     61.82209664	     71.61203341	     85.68769910	     10.27412023	     27.18408942	     20.78265086	    -31.68835483	     50.63550880	     76.35461859	     89.06796933	      0.96781765	     23.33570733
      4.22033898	     -1.12918881	     -7.49947112	     94.02458937	      0.18360261	      0.44149759	      1.01662982	     29.55388435	      1.76805424	      5.78424253	     44.95493819	      0.78461169	     54.66493657	     -4.01088318	      0.00000000	     32.10390830	      2.54028847	      4.06701359	     47.92388840	      0.83642964	     54.98402419	     -8.31794130	      0.00000000	      0.24566194	     -0.24772032	      0.06224070	      0.45621879	     -0.32946803	      0.06613074	      0.40359800	     -0.60230719	      0.06613074	      0.28076703	     -0.60230719	      0.05446061	      0.22812168	     -0.50515128	      0.05057057	      0.14037123	     -0.38371878	      0.04668053	      1.75473867	     -2.80226183	      0.34616411	      0.00000000	      0.00000000	     26.17599855	      9.41657655	      1.64072169	     26.72694818	    -25.83143920	     62.10670564	     78.53414454	     82.84403442	     10.22872230	     28.31821801	     20.14247762	    -34.77931052	     46.92510942	     82.41447321	     89.04806972	      7.23082971	     25.57118534
      4.23728814	     -1.52696653	     -6.92597090	     93.82603253	      0.18510535	      0.44754821	      1.01545102	     28.05178513	      1.56026868	      6.12166137	     43.47608553	      0.75880084	     53.83625517	     -4.19520720	      0.00000000	     30.38145096	      2.84187489	      4.07535734	     46.10860680	      0.80474700	     54.15534605	     -9.08288240	      0.00000000	      0.21603703	     -0.30931715	      0.02171817	      0.40120237	     -0.41139181	      0.02307556	      0.35492724	     -0.75207372	      0.02307556	      0.24690872	     -0.75207372	      0.01900340	      0.20061199	     -0.63075954	      0.01764601	      0.12344356	     -0.47913227	      0.01628863	      1.54313091	     -3.49905748	      0.12078995	      0.00000000	      0.00000000	     25.62419344	     10.03817790	      1.45013014	     28.65547604	    -29.38347672	     61.65935140	     86.18163173	     80.96542639	     10.07878306	     28.93676004	     19.82037963	    -38.12765602	     43.57437855	     89.41511942	     88.90953371	     10.97507582	     27.27996438
      4.25423729	     -1.70812829	     -6.32051728	     93.77840827	      0.18628555	      0.45388980	      1.01403022	     26.37586396	      1.47005450	      6.27099740	     41.76625151	      0.72895861	     52.76983832	     -4.36875007	      0.00000000	     28.62758267	      2.94630676	      4.20418610	     44.25660629	      0.77242350	     53.36308892	     -9.51108383	      0.00000000	      0.20060798	     -0.33676932	     -0.00349116	      0.37254909	     -0.44790319	     -0.00370935	      0.32957886	     -0.81882092	     -0.00370935	      0.22927486	     -0.81882092	     -0.00305476	      0.18628457	     -0.68674000	     -0.00283656	      0.11462740	     -0.52165568	     -0.00261837	      1.43292277	     -3.80960190	     -0.01941676	      0.00000000	      0.00000000	     25.25270070	     10.24827279	      1.49990054	     30.33383444	    -32.82813154	     59.24082611	     93.77552002	     80.31516956	     10.45868210	     28.52388171	     20.64249972	    -41.66494295	     41.63089875	     96.53354818	     88.41516879	     11.27274356	     27.02807455
